<?xml version="1.0" encoding="UTF-8"?>
<svg version="1.1" xmlns="http://www.w3.org/2000/svg" width="228" height="44">
<path d="M0 0 C4.19767513 4.19767513 5.87401449 8.3121748 6.1875 14.1875 C5.9258917 20.10387241 4.10796304 24.36662788 -0.0625 28.58203125 C-5.52342522 32.86845601 -10.44943093 33.55751524 -17.296875 33.19921875 C-23.67700803 32.22869587 -27.02785756 28.17714612 -31.05078125 23.53125 C-33.69214869 19.60791595 -33.56241333 15.35809665 -33.25 10.75 C-30.8938453 3.91715136 -27.80563403 -0.97218299 -21.25 -4.25 C-13.37422547 -7.137784 -6.57992113 -4.55533002 0 0 Z M-21.25 5.75 C-23.46666876 9.07500313 -24.02137913 10.78723828 -24.25 14.75 C-22.88571844 18.7746306 -21.61903433 22.08317657 -18.25 24.75 C-15.20180236 25.37311223 -12.31467434 25.24967516 -9.25 24.75 C-5.85541959 22.39990587 -4.26835018 19.73082343 -3.25 15.75 C-3.38952987 11.84316373 -3.94428422 9.31251704 -5.8125 5.875 C-8.69994305 3.35774195 -10.53004781 2.86111411 -14.28515625 2.609375 C-17.2524458 2.82174562 -18.9816057 3.88191057 -21.25 5.75 Z " fill="#EB1311" transform="translate(146.25,9.25)"/>
<path d="M0 0 C4.04743829 3.48267946 8.41071499 7.32231445 8.92578125 12.88671875 C9.08791796 19.68792692 8.90152774 23.87862212 4.6875 29.3125 C0.11750493 33.88249507 -3.62356822 35.46974657 -10.0625 35.625 C-15.52328936 35.55262809 -19.22487398 35.03515941 -23.3125 31.3125 C-27.65643848 26.76123719 -30.3125 22.79614933 -30.3125 16.3125 C-29.42263157 9.30478613 -26.67634002 4.92519082 -21.3125 0.3125 C-14.64759216 -3.93758616 -6.89241111 -3.5112283 0 0 Z M-19.3125 10.3125 C-20.91675619 13.52101238 -20.80327692 16.83185844 -20.3125 20.3125 C-18.81501293 22.96933189 -17.46597249 25.15902751 -15.3125 27.3125 C-12.25852448 27.75419067 -9.36219923 27.78966383 -6.3125 27.3125 C-3.55680553 25.13090855 -1.87661253 23.44072506 -0.3125 20.3125 C0.06516377 15.30845502 -0.20049566 12.31364844 -3.3125 8.3125 C-5.63087458 5.99412542 -6.94011069 5.37726336 -10.1875 4.8125 C-14.5519451 5.51081122 -16.16656918 7.23973037 -19.3125 10.3125 Z " fill="#F60C0A" transform="translate(68.3125,6.6875)"/>
<path d="M0 0 C1.37478516 0.01740234 1.37478516 0.01740234 2.77734375 0.03515625 C3.69644531 0.04417969 4.61554688 0.05320312 5.5625 0.0625 C6.27277344 0.07410156 6.98304688 0.08570313 7.71484375 0.09765625 C11.83441747 7.75521681 15.31191338 15.63815617 18.65234375 23.66015625 C19.06605225 24.6361377 19.47976074 25.61211914 19.90600586 26.61767578 C20.2850708 27.5404834 20.66413574 28.46329102 21.0546875 29.4140625 C21.57083618 30.65845093 21.57083618 30.65845093 22.09741211 31.92797852 C22.71484375 34.09765625 22.71484375 34.09765625 21.71484375 37.09765625 C16.4055695 37.53284266 16.4055695 37.53284266 13.71484375 37.09765625 C11.26162731 34.26112474 10.71484375 32.84642129 10.71484375 29.09765625 C5.76484375 29.09765625 0.81484375 29.09765625 -4.28515625 29.09765625 C-4.94515625 31.07765625 -5.60515625 33.05765625 -6.28515625 35.09765625 C-8.28515625 37.09765625 -8.28515625 37.09765625 -10.23046875 37.29296875 C-12.24869792 37.22786458 -14.26692708 37.16276042 -16.28515625 37.09765625 C-16.61515625 36.43765625 -16.94515625 35.77765625 -17.28515625 35.09765625 C-16.38654017 32.50677942 -15.42024295 30.0224076 -14.35546875 27.5 C-14.04568085 26.75053604 -13.73589294 26.00107208 -13.41671753 25.22889709 C-12.75946966 23.64286926 -12.09848281 22.05838654 -11.43408203 20.4753418 C-10.41418476 18.04475685 -9.40533232 15.60982428 -8.3984375 13.17382812 C-7.7597556 11.63645229 -7.12045351 10.09933393 -6.48046875 8.5625 C-6.17626007 7.8302269 -5.87205139 7.0979538 -5.55862427 6.3434906 C-2.94454052 0.12583507 -2.94454052 0.12583507 0 0 Z M2.71484375 11.09765625 C2.04364826 12.55391075 1.37802568 14.01273492 0.71484375 15.47265625 C0.34359375 16.28476562 -0.02765625 17.096875 -0.41015625 17.93359375 C-1.41010638 20.01764058 -1.41010638 20.01764058 -1.28515625 22.09765625 C1.35484375 22.09765625 3.99484375 22.09765625 6.71484375 22.09765625 C6.16378466 18.14839945 5.32549004 14.74845451 3.71484375 11.09765625 C3.38484375 11.09765625 3.05484375 11.09765625 2.71484375 11.09765625 Z " fill="#ED1412" transform="translate(198.28515625,4.90234375)"/>
<path d="M0 0 C3.60402474 -0.8640797 6.43493627 -1.11597604 10 0 C13.37983314 4.000729 15.69613828 8.31505215 18 13 C20.50256175 10.00427094 22.4704075 7.18089508 24.1875 3.6875 C25.4296875 1.60546875 25.4296875 1.60546875 27 0 C30.10436247 -0.68463213 32.87531077 -0.49014733 36 0 C36 3.47297375 35.39693043 4.18082962 33.41015625 6.921875 C26.34565104 17.07047959 22.02027437 24.39545298 23 37 C20.03 37 17.06 37 14 37 C14.05542969 36.19820312 14.11085938 35.39640625 14.16796875 34.5703125 C14.23298022 23.10229007 9.40890438 16.12655416 3.18017578 6.87451172 C1.7983722 4.67974798 0.81384674 2.46103355 0 0 Z " fill="#FB0908" transform="translate(77,5)"/>
<path d="M0 0 C0.66209473 -0.00095673 1.32418945 -0.00191345 2.00634766 -0.00289917 C3.40852961 -0.00358076 4.8107147 -0.00172792 6.21289062 0.00244141 C8.36595713 0.00779004 10.51881502 0.0024958 12.671875 -0.00390625 C14.03125046 -0.00324546 15.3906258 -0.00196429 16.75 0 C18.61785156 0.00169189 18.61785156 0.00169189 20.5234375 0.00341797 C23.375 0.1328125 23.375 0.1328125 24.375 1.1328125 C24.5 4.1328125 24.5 4.1328125 24.375 7.1328125 C23.375 8.1328125 23.375 8.1328125 21.08984375 8.23046875 C19.71505859 8.21306641 19.71505859 8.21306641 18.3125 8.1953125 C17.39339844 8.18628906 16.47429687 8.17726563 15.52734375 8.16796875 C14.81707031 8.15636719 14.10679687 8.14476562 13.375 8.1328125 C13.38285522 9.23737793 13.38285522 9.23737793 13.39086914 10.36425781 C13.41166867 13.70376735 13.42466968 17.04326324 13.4375 20.3828125 C13.44587891 21.54167969 13.45425781 22.70054688 13.46289062 23.89453125 C13.46772461 25.56708984 13.46772461 25.56708984 13.47265625 27.2734375 C13.48051147 28.81306152 13.48051147 28.81306152 13.48852539 30.38378906 C13.38836951 32.80906906 13.07423078 34.81978611 12.375 37.1328125 C9.735 37.1328125 7.095 37.1328125 4.375 37.1328125 C4.375 27.5628125 4.375 17.9928125 4.375 8.1328125 C0.745 8.1328125 -2.885 8.1328125 -6.625 8.1328125 C-7.00563221 5.8067268 -7.33769945 3.47225986 -7.625 1.1328125 C-5.74180732 -0.75038018 -2.50569863 0.00226965 0 0 Z " fill="#FB0907" transform="translate(160.625,4.8671875)"/>
<path d="M0 0 C0.81017578 -0.00459229 1.62035156 -0.00918457 2.45507812 -0.01391602 C8.31414012 0.00164012 8.31414012 0.00164012 9.4375 1.125 C9.5625 4.125 9.5625 4.125 9.4375 7.125 C9.1075 7.455 8.7775 7.785 8.4375 8.125 C4.8075 8.125 1.1775 8.125 -2.5625 8.125 C-2.5625 17.695 -2.5625 27.265 -2.5625 37.125 C-5.2025 37.125 -7.8425 37.125 -10.5625 37.125 C-11.5625 36.125 -11.5625 36.125 -11.67602539 33.53295898 C-11.67078857 32.40704346 -11.66555176 31.28112793 -11.66015625 30.12109375 C-11.65693359 28.90615234 -11.65371094 27.69121094 -11.65039062 26.43945312 C-11.64201172 25.16005859 -11.63363281 23.88066406 -11.625 22.5625 C-11.62048828 21.27923828 -11.61597656 19.99597656 -11.61132812 18.67382812 C-11.59949545 15.49083978 -11.58301068 12.30794238 -11.5625 9.125 C-14.8625 8.795 -18.1625 8.465 -21.5625 8.125 C-21.5625 6.145 -21.5625 4.165 -21.5625 2.125 C-15.34677005 -0.98286498 -6.81046259 0.02217297 0 0 Z " fill="#FA0908" transform="translate(28.5625,4.875)"/>
<path d="M0 0 C4.04743829 3.48267946 8.41071499 7.32231445 8.92578125 12.88671875 C9.08791796 19.68792692 8.90152774 23.87862212 4.6875 29.3125 C2.75808477 31.33259271 1.03062808 32.71717875 -1.3125 34.3125 C-2.7975 33.8175 -2.7975 33.8175 -4.3125 33.3125 C-3.3225 32.6525 -2.3325 31.9925 -1.3125 31.3125 C-0.58867533 29.25324861 -0.58867533 29.25324861 -0.3125 27.3125 C1.0075 27.6425 2.3275 27.9725 3.6875 28.3125 C3.6875 26.9925 3.6875 25.6725 3.6875 24.3125 C4.3475 23.9825 5.0075 23.6525 5.6875 23.3125 C5.1925 22.3225 5.1925 22.3225 4.6875 21.3125 C3.6975 20.9825 2.7075 20.6525 1.6875 20.3125 C2.0175 18.6625 2.3475 17.0125 2.6875 15.3125 C4.0075 14.9825 5.3275 14.6525 6.6875 14.3125 C6.6875 12.9925 6.6875 11.6725 6.6875 10.3125 C6.0275 10.3125 5.3675 10.3125 4.6875 10.3125 C4.1925 9.3225 4.1925 9.3225 3.6875 8.3125 C1.92134882 13.02223649 1.20155169 17.34333364 0.6875 22.3125 C0.0275 22.3125 -0.6325 22.3125 -1.3125 22.3125 C-1.27769531 21.72082031 -1.24289063 21.12914063 -1.20703125 20.51953125 C-1.03819996 15.59126563 -1.05330886 12.29595584 -4.3125 8.3125 C-7.82503146 5.97081236 -9.17719356 5.81626323 -13.3125 6.3125 C-16.01240662 8.11243774 -17.8543865 9.396273 -19.3125 12.3125 C-19.69187519 18.00312784 -19.32224609 21.29625652 -16.3125 26.3125 C-17.3025 26.3125 -18.2925 26.3125 -19.3125 26.3125 C-19.3125 25.6525 -19.3125 24.9925 -19.3125 24.3125 C-20.3025 24.6425 -21.2925 24.9725 -22.3125 25.3125 C-21.9825 20.0325 -21.6525 14.7525 -21.3125 9.3125 C-20.6525 9.3125 -19.9925 9.3125 -19.3125 9.3125 C-19.6425 8.3225 -19.9725 7.3325 -20.3125 6.3125 C-24.82385667 8.50721406 -26.37523348 10.72423718 -28.3125 15.3125 C-28.6425 15.3125 -28.9725 15.3125 -29.3125 15.3125 C-29.18943809 9.4055282 -27.39973252 6.31272815 -23.328125 2.05078125 C-16.49863672 -3.83899062 -7.90034293 -4.024703 0 0 Z " fill="#E61714" transform="translate(68.3125,6.6875)"/>
<path d="M0 0 C1.23556641 0.01740234 1.23556641 0.01740234 2.49609375 0.03515625 C3.32238281 0.04417969 4.14867188 0.05320312 5 0.0625 C5.63808594 0.07410156 6.27617188 0.08570313 6.93359375 0.09765625 C6.93359375 3.57063 6.33052418 4.27848587 4.34375 7.01953125 C-2.72075521 17.16813584 -7.04613188 24.49310923 -6.06640625 37.09765625 C-9.03640625 37.09765625 -12.00640625 37.09765625 -15.06640625 37.09765625 C-15.08058594 36.17984375 -15.09476562 35.26203125 -15.109375 34.31640625 C-15.38019739 27.34821927 -15.68961486 22.17789433 -20.0078125 16.55078125 C-21.06640625 15.09765625 -21.06640625 15.09765625 -21.06640625 13.09765625 C-20.40640625 13.09765625 -19.74640625 13.09765625 -19.06640625 13.09765625 C-19.06640625 13.75765625 -19.06640625 14.41765625 -19.06640625 15.09765625 C-18.40640625 15.09765625 -17.74640625 15.09765625 -17.06640625 15.09765625 C-13.20759689 21.85057263 -13.78133659 28.48524049 -14.06640625 36.09765625 C-11.75640625 36.09765625 -9.44640625 36.09765625 -7.06640625 36.09765625 C-7.06640625 31.80765625 -7.06640625 27.51765625 -7.06640625 23.09765625 C-7.72640625 23.09765625 -8.38640625 23.09765625 -9.06640625 23.09765625 C-9.06640625 22.43765625 -9.06640625 21.77765625 -9.06640625 21.09765625 C-10.05640625 20.76765625 -11.04640625 20.43765625 -12.06640625 20.09765625 C-11.73640625 19.43765625 -11.40640625 18.77765625 -11.06640625 18.09765625 C-10.40640625 18.09765625 -9.74640625 18.09765625 -9.06640625 18.09765625 C-8.84279945 15.17219185 -8.84279945 15.17219185 -10.06640625 13.09765625 C-8.66796875 10.3125 -8.66796875 10.3125 -6.69140625 7.03515625 C-6.04429688 5.95105469 -5.3971875 4.86695313 -4.73046875 3.75 C-2.45039838 0.11580333 -2.45039838 0.11580333 0 0 Z " fill="#F30D0A" transform="translate(106.06640625,4.90234375)"/>
<path d="M0 0 C0.66209473 -0.00095673 1.32418945 -0.00191345 2.00634766 -0.00289917 C3.40852961 -0.00358076 4.8107147 -0.00172792 6.21289062 0.00244141 C8.36595713 0.00779004 10.51881502 0.0024958 12.671875 -0.00390625 C14.03125046 -0.00324546 15.3906258 -0.00196429 16.75 0 C18.61785156 0.00169189 18.61785156 0.00169189 20.5234375 0.00341797 C23.375 0.1328125 23.375 0.1328125 24.375 1.1328125 C24.5 4.1328125 24.5 4.1328125 24.375 7.1328125 C23.375 8.1328125 23.375 8.1328125 21.08984375 8.23046875 C19.71505859 8.21306641 19.71505859 8.21306641 18.3125 8.1953125 C17.39339844 8.18628906 16.47429687 8.17726563 15.52734375 8.16796875 C14.81707031 8.15636719 14.10679687 8.14476562 13.375 8.1328125 C13.38285522 9.23737793 13.38285522 9.23737793 13.39086914 10.36425781 C13.41166867 13.70376735 13.42466968 17.04326324 13.4375 20.3828125 C13.44587891 21.54167969 13.45425781 22.70054688 13.46289062 23.89453125 C13.46772461 25.56708984 13.46772461 25.56708984 13.47265625 27.2734375 C13.48051147 28.81306152 13.48051147 28.81306152 13.48852539 30.38378906 C13.38836951 32.80906906 13.07423078 34.81978611 12.375 37.1328125 C9.735 37.1328125 7.095 37.1328125 4.375 37.1328125 C4.375 27.5628125 4.375 17.9928125 4.375 8.1328125 C0.745 8.1328125 -2.885 8.1328125 -6.625 8.1328125 C-7.00563221 5.8067268 -7.33769945 3.47225986 -7.625 1.1328125 C-5.74180732 -0.75038018 -2.50569863 0.00226965 0 0 Z M-5.625 2.1328125 C-5.625 3.4528125 -5.625 4.7728125 -5.625 6.1328125 C-1.665 6.4628125 2.295 6.7928125 6.375 7.1328125 C6.375 16.7028125 6.375 26.2728125 6.375 36.1328125 C8.025 36.1328125 9.675 36.1328125 11.375 36.1328125 C11.045 34.1528125 10.715 32.1728125 10.375 30.1328125 C11.035 29.8028125 11.695 29.4728125 12.375 29.1328125 C12.705 21.8728125 13.035 14.6128125 13.375 7.1328125 C17.83 6.6378125 17.83 6.6378125 22.375 6.1328125 C22.375 4.8128125 22.375 3.4928125 22.375 2.1328125 C13.135 2.1328125 3.895 2.1328125 -5.625 2.1328125 Z " fill="#CE201F" transform="translate(160.625,4.8671875)"/>
<path d="M0 0 C1.10452257 3.76878627 0.68900462 5.96494449 -0.4375 9.75 C-0.72496094 10.73484375 -1.01242188 11.7196875 -1.30859375 12.734375 C-1.53675781 13.48203125 -1.76492187 14.2296875 -2 15 C-2.99 15 -3.98 15 -5 15 C-4.67 16.65 -4.34 18.3 -4 20 C-3.03513672 19.75443359 -3.03513672 19.75443359 -2.05078125 19.50390625 C1.92840171 18.84665324 5.7881437 18.893647 9.8125 18.9375 C10.99489258 18.94426758 10.99489258 18.94426758 12.20117188 18.95117188 C14.13414761 18.96288688 16.06708393 18.98082002 18 19 C18 18.34 18 17.68 18 17 C18.66 17 19.32 17 20 17 C20.33 19.31 20.66 21.62 21 24 C21.99 24 22.98 24 24 24 C24.33 22.02 24.66 20.04 25 18 C27.26185454 20.26185454 28.03921617 21.96983561 29 25 C28.505 26.485 28.505 26.485 28 28 C22.69072575 28.43518641 22.69072575 28.43518641 20 28 C17.54678356 25.16346849 17 23.74876504 17 20 C12.05 20 7.1 20 2 20 C1.34 21.98 0.68 23.96 0 26 C-2 28 -2 28 -3.9453125 28.1953125 C-5.96354167 28.13020833 -7.98177083 28.06510417 -10 28 C-10.33 27.34 -10.66 26.68 -11 26 C-10.10375977 23.38623047 -10.10375977 23.38623047 -8.69140625 20.1171875 C-7.94213867 18.36728516 -7.94213867 18.36728516 -7.17773438 16.58203125 C-6.63949008 15.34628134 -6.10107641 14.1106052 -5.5625 12.875 C-5.02728125 11.63181737 -4.49276686 10.38833124 -3.95898438 9.14453125 C-2.64624088 6.09328962 -1.32630871 3.04536391 0 0 Z " fill="#EB0E0C" transform="translate(192,14)"/>
<path d="M0 0 C0.81017578 -0.00459229 1.62035156 -0.00918457 2.45507812 -0.01391602 C8.31414012 0.00164012 8.31414012 0.00164012 9.4375 1.125 C9.5625 4.125 9.5625 4.125 9.4375 7.125 C9.1075 7.455 8.7775 7.785 8.4375 8.125 C4.8075 8.125 1.1775 8.125 -2.5625 8.125 C-2.5625 17.695 -2.5625 27.265 -2.5625 37.125 C-5.2025 37.125 -7.8425 37.125 -10.5625 37.125 C-11.5625 36.125 -11.5625 36.125 -11.67602539 33.53295898 C-11.67078857 32.40704346 -11.66555176 31.28112793 -11.66015625 30.12109375 C-11.65693359 28.90615234 -11.65371094 27.69121094 -11.65039062 26.43945312 C-11.64201172 25.16005859 -11.63363281 23.88066406 -11.625 22.5625 C-11.62048828 21.27923828 -11.61597656 19.99597656 -11.61132812 18.67382812 C-11.59949545 15.49083978 -11.58301068 12.30794238 -11.5625 9.125 C-10.9025 9.125 -10.2425 9.125 -9.5625 9.125 C-9.5625 18.035 -9.5625 26.945 -9.5625 36.125 C-7.5825 36.125 -5.6025 36.125 -3.5625 36.125 C-3.5625 26.555 -3.5625 16.985 -3.5625 7.125 C-0.9225 6.465 1.7175 5.805 4.4375 5.125 C4.7675 4.465 5.0975 3.805 5.4375 3.125 C-2.4825 3.125 -10.4025 3.125 -18.5625 3.125 C-18.8925 4.115 -19.2225 5.105 -19.5625 6.125 C-16.5925 6.455 -13.6225 6.785 -10.5625 7.125 C-10.5625 7.455 -10.5625 7.785 -10.5625 8.125 C-14.1925 8.125 -17.8225 8.125 -21.5625 8.125 C-21.5625 6.145 -21.5625 4.165 -21.5625 2.125 C-15.34677005 -0.98286498 -6.81046259 0.02217297 0 0 Z " fill="#CF1F1E" transform="translate(28.5625,4.875)"/>
<path d="M0 0 C0.33 0.66 0.66 1.32 1 2 C1.66 2 2.32 2 3 2 C3.33 3.65 3.66 5.3 4 7 C3.01 7 2.02 7 1 7 C0.67 9.97 0.34 12.94 0 16 C3.63 16 7.26 16 11 16 C11.33 15.34 11.66 14.68 12 14 C12.99 14.33 13.98 14.66 15 15 C15 16.98 15 18.96 15 21 C13.84242188 21.06058594 12.68484375 21.12117188 11.4921875 21.18359375 C9.95311543 21.26805502 8.41405345 21.35270018 6.875 21.4375 C5.73417969 21.49647461 5.73417969 21.49647461 4.5703125 21.55664062 C0.31490797 21.79509002 -3.80370826 22.20230237 -8 23 C-9 20 -9 20 -8 17 C-7.01 17 -6.02 17 -5 17 C-4.96261719 16.43152344 -4.92523438 15.86304688 -4.88671875 15.27734375 C-4.44464822 10.08518203 -3.90327686 3.90327686 0 0 Z " fill="#FB0907" transform="translate(195,12)"/>
<path d="M0 0 C0.33 0.99 0.66 1.98 1 3 C1.66 3 2.32 3 3 3 C3 4.32 3 5.64 3 7 C2.360625 7.2475 1.72125 7.495 1.0625 7.75 C-1.18741541 8.81562433 -1.18741541 8.81562433 -1.75 11.125 C-1.8325 11.74375 -1.915 12.3625 -2 13 C-0.35 13 1.3 13 3 13 C3 13.99 3 14.98 3 16 C2.01 16.33 1.02 16.66 0 17 C0 18.32 0 19.64 0 21 C-1.32 20.67 -2.64 20.34 -4 20 C-4.1546875 21.175625 -4.1546875 21.175625 -4.3125 22.375 C-5 25 -5 25 -8 27 C-10.04296875 27.1953125 -10.04296875 27.1953125 -12.1875 27.125 C-13.445625 27.08375 -14.70375 27.0425 -16 27 C-15 24.125 -15 24.125 -13 21 C-10.31093987 19.85436491 -7.91803296 19.47836606 -5 19 C-5 17.68 -5 16.36 -5 15 C-4.34 15 -3.68 15 -3 15 C-3.061875 13.824375 -3.12375 12.64875 -3.1875 11.4375 C-3.21144173 6.96039699 -1.9879056 3.9758112 0 0 Z " fill="#FA0906" transform="translate(72,14)"/>
<path d="M0 0 C0.61875 0.474375 1.2375 0.94875 1.875 1.4375 C1.545 2.7575 1.215 4.0775 0.875 5.4375 C-4.735 5.1075 -10.345 4.7775 -16.125 4.4375 C-16.125 5.0975 -16.125 5.7575 -16.125 6.4375 C-16.785 6.4375 -17.445 6.4375 -18.125 6.4375 C-18.41375 5.798125 -18.7025 5.15875 -19 4.5 C-19.95323451 2.28543921 -19.95323451 2.28543921 -22.125 1.4375 C-14.99419946 -3.11828923 -7.75611429 -3.87805714 0 0 Z " fill="#F80B0A" transform="translate(68.125,6.5625)"/>
<path d="M0 0 C1.65 0 3.3 0 5 0 C7.36486077 4.58191774 7.40579751 8.96056114 7 14 C6.67 14.99 6.34 15.98 6 17 C4.35 17 2.7 17 1 17 C1.33 17.99 1.66 18.98 2 20 C0.35 20 -1.3 20 -3 20 C-2.67 18.02 -2.34 16.04 -2 14 C-1.34 14 -0.68 14 0 14 C-0.185625 12.989375 -0.37125 11.97875 -0.5625 10.9375 C-0.99768247 7.02085773 -0.70853021 3.85755337 0 0 Z " fill="#E81615" transform="translate(145,14)"/>
<path d="M0 0 C2 1 2 1 3 3 C3.99 3 4.98 3 6 3 C6 3.66 6 4.32 6 5 C6.74765625 4.98839844 7.4953125 4.97679687 8.265625 4.96484375 C9.25046875 4.95582031 10.2353125 4.94679688 11.25 4.9375 C12.71179688 4.92009766 12.71179688 4.92009766 14.203125 4.90234375 C16.65758678 4.98804423 18.66168914 5.29293934 21 6 C21 6.66 21 7.32 21 8 C17.86591142 11.06644638 15.36829442 11.45656197 11.0625 11.5 C6.84487105 11.39198755 5.3679151 11.25249076 1.8125 8.8125 C0.03428716 6.05320422 -0.81867222 4.26390004 -1 1 C-0.67 0.67 -0.34 0.34 0 0 Z " fill="#FA0A09" transform="translate(121,30)"/>
<path d="M0 0 C3.60379863 -0.86402549 6.43269209 -1.10500768 10 0 C13.46885738 3.94958093 15.93405174 8.17325 18 13 C17.67 13.66 17.34 14.32 17 15 C15.125 14.8125 15.125 14.8125 13 14 C11.6875 11.625 11.6875 11.625 11 9 C11.33 8.01 11.66 7.02 12 6 C10.35 5.67 8.7 5.34 7 5 C7.33 7.64 7.66 10.28 8 13 C5.68757908 10.83676753 3.9843604 8.62352196 2.3125 5.9375 C1.87550781 5.24527344 1.43851562 4.55304687 0.98828125 3.83984375 C0 2 0 2 0 0 Z " fill="#E71512" transform="translate(77,5)"/>
<path d="M0 0 C0.33 1.32 0.66 2.64 1 4 C0.44570312 4.17015625 -0.10859375 4.3403125 -0.6796875 4.515625 C-5.25122977 5.90825986 -5.25122977 5.90825986 -8.5 9.1875 C-8.665 9.785625 -8.83 10.38375 -9 11 C-6.69 11.33 -4.38 11.66 -2 12 C-2 12.33 -2 12.66 -2 13 C-9.56198897 13.44701413 -14.76335625 13.53574091 -21 9 C-21 8.67 -21 8.34 -21 8 C-19.35 8 -17.7 8 -16 8 C-16 8.66 -16 9.32 -16 10 C-14.35 9.67 -12.7 9.34 -11 9 C-11 8.01 -11 7.02 -11 6 C-11.99 6 -12.98 6 -14 6 C-13.67 5.34 -13.34 4.68 -13 4 C-12.39671875 4.04640625 -11.7934375 4.0928125 -11.171875 4.140625 C-5.91586667 4.47810312 -5.91586667 4.47810312 -1.4375 2 C-0.963125 1.34 -0.48875 0.68 0 0 Z " fill="#E31919" transform="translate(66,29)"/>
<path d="M0 0 C0.66 0 1.32 0 2 0 C2 0.66 2 1.32 2 2 C2.66 2 3.32 2 4 2 C7.85880936 8.75291638 7.28506966 15.38758424 7 23 C9.31 23 11.62 23 14 23 C14 17.06 14 11.12 14 5 C14.66 5 15.32 5 16 5 C16 4.34 16 3.68 16 3 C16.66 3 17.32 3 18 3 C18 2.34 18 1.68 18 1 C18.66 1 19.32 1 20 1 C18.87548273 3.9719385 17.77706209 6.33440687 16 9 C15.70008931 11.58885171 15.49134775 14.09149082 15.375 16.6875 C15.31699219 17.7403418 15.31699219 17.7403418 15.2578125 18.81445312 C15.1637666 20.54254655 15.0808032 22.27123675 15 24 C12.03 24 9.06 24 6 24 C5.98582031 23.0821875 5.97164063 22.164375 5.95703125 21.21875 C5.68620886 14.25056302 5.37679139 9.08023808 1.05859375 3.453125 C0 2 0 2 0 0 Z " fill="#D9221D" transform="translate(85,18)"/>
<path d="M0 0 C0.99 0.33 1.98 0.66 3 1 C3 5.29 3 9.58 3 14 C1.02 14.99 1.02 14.99 -1 16 C-0.67 14.68 -0.34 13.36 0 12 C-0.99 12 -1.98 12 -3 12 C-3.08090971 10.37581255 -3.13914995 8.75048255 -3.1875 7.125 C-3.22230469 6.22007813 -3.25710937 5.31515625 -3.29296875 4.3828125 C-3.19628906 3.59648437 -3.09960938 2.81015625 -3 2 C-2.01 1.34 -1.02 0.68 0 0 Z " fill="#FC0808" transform="translate(118,16)"/>
<path d="M0 0 C1.36513594 4.09540782 1.76521029 7.7275759 1 12 C-1.32871609 15.91312735 -4.23659075 18.4910605 -8 21 C-8.99 20.67 -9.98 20.34 -11 20 C-10.01 19.34 -9.02 18.68 -8 18 C-7.27617533 15.94074861 -7.27617533 15.94074861 -7 14 C-5.68 14.33 -4.36 14.66 -3 15 C-3 13.68 -3 12.36 -3 11 C-2.34 10.67 -1.68 10.34 -1 10 C-1.33 9.34 -1.66 8.68 -2 8 C-2.99 7.67 -3.98 7.34 -5 7 C-4.75 4.625 -4.75 4.625 -4 2 C-1.9375 0.6875 -1.9375 0.6875 0 0 Z " fill="#FA0A0B" transform="translate(75,20)"/>
<path d="M0 0 C0.53625 0.2475 1.0725 0.495 1.625 0.75 C0.635 0.75 -0.355 0.75 -1.375 0.75 C-1.375 2.4 -1.375 4.05 -1.375 5.75 C-0.715 6.08 -0.055 6.41 0.625 6.75 C0.955 5.43 1.285 4.11 1.625 2.75 C1.955 3.41 2.285 4.07 2.625 4.75 C4.51264903 5.43472665 4.51264903 5.43472665 6.6875 5.875 C7.78771484 6.12636719 7.78771484 6.12636719 8.91015625 6.3828125 C9.47605469 6.50398437 10.04195312 6.62515625 10.625 6.75 C7.625 7.75 7.625 7.75 4.25 8.0625 C0.27018942 8.81729166 -1.46205716 10.01359915 -4.375 12.75 C-4.5 6 -4.5 6 -3.375 3.75 C-4.550625 4.4615625 -4.550625 4.4615625 -5.75 5.1875 C-7.26448678 6.08898023 -8.7985897 6.96179485 -10.375 7.75 C-8.77449323 3.26858103 -4.98031651 -0.52424384 0 0 Z " fill="#DC1C19" transform="translate(127.375,5.25)"/>
<path d="M0 0 C1.9375 0.5 1.9375 0.5 4 2 C4.68790422 4.69658452 4.81946464 7.2017019 5 10 C4.01 10 3.02 10 2 10 C2.33 10.99 2.66 11.98 3 13 C1.35 13 -0.3 13 -2 13 C-1.67 11.02 -1.34 9.04 -1 7 C-0.34 7 0.32 7 1 7 C0.67 4.69 0.34 2.38 0 0 Z " fill="#FA0906" transform="translate(144,21)"/>
<path d="M0 0 C0.33 1.32 0.66 2.64 1 4 C-2.81756824 5.37432457 -6.07255329 4.67975039 -10 4 C-10 3.01 -10 2.02 -10 1 C-6.1496895 -1.56687367 -4.41430237 -0.83288724 0 0 Z " fill="#FB0807" transform="translate(69,7)"/>
<path d="M0 0 C6.18131736 -0.378448 11.1547898 0.5219137 15.9375 4.6875 C16.4634375 5.3371875 16.4634375 5.3371875 17 6 C15.783125 5.814375 14.56625 5.62875 13.3125 5.4375 C9.97022061 5.01006818 7.28031583 5.07741117 4 6 C4 4.68 4 3.36 4 2 C2.68 1.34 1.36 0.68 0 0 Z " fill="#F1100F" transform="translate(129,4)"/>
<path d="M0 0 C0.66 0 1.32 0 2 0 C1.67 2.64 1.34 5.28 1 8 C0.34 7.34 -0.32 6.68 -1 6 C-1 5.01 -1 4.02 -1 3 C-5.95 3 -10.9 3 -16 3 C-16.66 4.98 -17.32 6.96 -18 9 C-18.33 9 -18.66 9 -19 9 C-19 7.02 -19 5.04 -19 3 C-15.69005287 1.34502644 -12.00877 1.89915665 -8.375 1.9375 C-7.57320312 1.94201172 -6.77140625 1.94652344 -5.9453125 1.95117188 C-3.96350994 1.96296832 -1.98174567 1.98090395 0 2 C0 1.34 0 0.68 0 0 Z " fill="#DE1D21" transform="translate(210,31)"/>
<path d="M0 0 C1.10452257 3.76878627 0.68900462 5.96494449 -0.4375 9.75 C-0.72496094 10.73484375 -1.01242188 11.7196875 -1.30859375 12.734375 C-1.65083984 13.85585938 -1.65083984 13.85585938 -2 15 C-2.99 15 -3.98 15 -5 15 C-5.33 16.32 -5.66 17.64 -6 19 C-7.12642186 15.62073443 -6.96344705 15.27071722 -5.56640625 12.20703125 C-5.0878418 11.1387207 -5.0878418 11.1387207 -4.59960938 10.04882812 C-4.25736328 9.31083984 -3.91511719 8.57285156 -3.5625 7.8125 C-3.22412109 7.06291016 -2.88574219 6.31332031 -2.53710938 5.54101562 C-1.7000589 3.69007302 -0.85114596 1.84450334 0 0 Z " fill="#D81916" transform="translate(192,14)"/>
<path d="M0 0 C1.23556641 0.01740234 1.23556641 0.01740234 2.49609375 0.03515625 C3.32238281 0.04417969 4.14867188 0.05320312 5 0.0625 C5.63808594 0.07410156 6.27617188 0.08570313 6.93359375 0.09765625 C6.93359375 4.00604491 5.42791499 5.21359732 2.93359375 8.09765625 C2.93359375 6.44765625 2.93359375 4.79765625 2.93359375 3.09765625 C1.28359375 3.09765625 -0.36640625 3.09765625 -2.06640625 3.09765625 C-2.39640625 4.08765625 -2.72640625 5.07765625 -3.06640625 6.09765625 C-3.72640625 6.09765625 -4.38640625 6.09765625 -5.06640625 6.09765625 C-2.77153066 0.13097971 -2.77153066 0.13097971 0 0 Z " fill="#CC2320" transform="translate(106.06640625,4.90234375)"/>
<path d="M0 0 C0.33 0.99 0.66 1.98 1 3 C-0.109375 4.75390625 -0.109375 4.75390625 -1.75 6.5625 C-2.28109375 7.16191406 -2.8121875 7.76132812 -3.359375 8.37890625 C-5 10 -5 10 -8 12 C-8.99 11.67 -9.98 11.34 -11 11 C-10.01 10.34 -9.02 9.68 -8 9 C-7.27617533 6.94074861 -7.27617533 6.94074861 -7 5 C-5.68 5.33 -4.36 5.66 -3 6 C-3 4.68 -3 3.36 -3 2 C-2.01 2 -1.02 2 0 2 C0 1.34 0 0.68 0 0 Z " fill="#DB1A1A" transform="translate(75,29)"/>
<path d="M0 0 C0.33 0 0.66 0 1 0 C1.03738281 0.66386719 1.07476562 1.32773437 1.11328125 2.01171875 C1.4899103 7.07036379 1.81205295 10.84180819 5 15 C3.68 15.33 2.36 15.66 1 16 C-0.9960615 12.67849055 -1.24399211 10.15909894 -1.1875 6.3125 C-1.18105469 5.33925781 -1.17460938 4.36601562 -1.16796875 3.36328125 C-1 1 -1 1 0 0 Z " fill="#DB1918" transform="translate(122,18)"/>
<path d="M0 0 C0.86882813 0.07863281 1.73765625 0.15726562 2.6328125 0.23828125 C4.875 0.6875 4.875 0.6875 6.875 2.6875 C0.935 2.6875 -5.005 2.6875 -11.125 2.6875 C-7.75627465 -0.68122535 -4.57591933 -0.45759193 0 0 Z " fill="#DF1A18" transform="translate(60.125,4.3125)"/>
<path d="M0 0 C2.73034935 2.73034935 3.78663731 5.97312216 5.1875 9.5 C5.61579102 10.53447266 5.61579102 10.53447266 6.05273438 11.58984375 C6.76545405 13.36904176 7.3895311 15.18317788 8 17 C7.67 17.66 7.34 18.32 7 19 C6.67 17.68 6.34 16.36 6 15 C5.34 15 4.68 15 4 15 C3.32532438 13.25307205 2.66055844 11.50231475 2 9.75 C1.62875 8.77546875 1.2575 7.8009375 0.875 6.796875 C0 4 0 4 0 0 Z " fill="#DF2322" transform="translate(207,8)"/>
<path d="M0 0 C0.99 0.33 1.98 0.66 3 1 C2.67 1.66 2.34 2.32 2 3 C1.62062481 8.69062784 1.99025391 11.98375652 5 17 C4.01 17 3.02 17 2 17 C2 16.34 2 15.68 2 15 C1.01 15.33 0.02 15.66 -1 16 C-0.67 10.72 -0.34 5.44 0 0 Z " fill="#DC1B1B" transform="translate(47,16)"/>
<path d="M0 0 C0.66 0 1.32 0 2 0 C2 1.98 2 3.96 2 6 C0.35 6.33 -1.3 6.66 -3 7 C-2.25 2.25 -2.25 2.25 0 0 Z " fill="#FD080A" transform="translate(215,32)"/>
<path d="M0 0 C0.66 0 1.32 0 2 0 C2.98120464 3.05263664 2.98120464 4.94736336 2 8 C-0.31 8 -2.62 8 -5 8 C-4.67 6.68 -4.34 5.36 -4 4 C-4 4.99 -4 5.98 -4 7 C-2.35 7 -0.7 7 1 7 C0.34 5.02 -0.32 3.04 -1 1 C-0.67 0.67 -0.34 0.34 0 0 Z " fill="#D41010" transform="translate(171,34)"/>
<path d="M0 0 C1.32 0 2.64 0 4 0 C3.67 1.98 3.34 3.96 3 6 C2.01 6.33 1.02 6.66 0 7 C0 4.69 0 2.38 0 0 Z " fill="#FB0906" transform="translate(145,14)"/>
<path d="M0 0 C0.93423645 3.01031744 1.04449911 3.86650268 0 7 C0.99 7 1.98 7 3 7 C3 7.66 3 8.32 3 9 C1.35 9 -0.3 9 -2 9 C-2.33 8.34 -2.66 7.68 -3 7 C-2.06421005 4.64018187 -1.06652192 2.30368736 0 0 Z " fill="#D11B1E" transform="translate(184,33)"/>
<path d="M0 0 C0 2.97 0 5.94 0 9 C-0.66 9 -1.32 9 -2 9 C-2.66 7.02 -3.32 5.04 -4 3 C-1.125 0 -1.125 0 0 0 Z " fill="#F30F10" transform="translate(151,22)"/>
<path d="M0 0 C3.3 0 6.6 0 10 0 C10 0.66 10 1.32 10 2 C7.36 2 4.72 2 2 2 C1.67 2.66 1.34 3.32 1 4 C0.67 2.68 0.34 1.36 0 0 Z " fill="#C72527" transform="translate(77,5)"/>
<path d="M0 0 C0.66 0.33 1.32 0.66 2 1 C2 3.15634036 1.5534764 4.92446352 1 7 C0.01 7 -0.98 7 -2 7 C-2.33 6.01 -2.66 5.02 -3 4 C-1.5625 1.8125 -1.5625 1.8125 0 0 Z " fill="#E51614" transform="translate(196,7)"/>
<path d="M0 0 C-0.33 1.32 -0.66 2.64 -1 4 C-2.9375 3.6875 -2.9375 3.6875 -5 3 C-5.33 2.01 -5.66 1.02 -6 0 C-3 -1 -3 -1 0 0 Z " fill="#F10E0C" transform="translate(70,8)"/>
<path d="M0 0 C4.82360189 -0.19294408 8.49646738 0.24252386 13 2 C13 2.33 13 2.66 13 3 C8.17639811 3.19294408 4.50353262 2.75747614 0 1 C0 0.67 0 0.34 0 0 Z " fill="#D8201D" transform="translate(129,4)"/>
<path d="M0 0 C1.32 0.33 2.64 0.66 4 1 C4 1.66 4 2.32 4 3 C4.66 3.33 5.32 3.66 6 4 C3.69 4.33 1.38 4.66 -1 5 C-1.33 4.01 -1.66 3.02 -2 2 C-1.34 2 -0.68 2 0 2 C0 1.34 0 0.68 0 0 Z " fill="#F70804" transform="translate(207,20)"/>
<path d="M0 0 C1.32 0 2.64 0 4 0 C2.52307692 4.67692308 2.52307692 4.67692308 -0.125 6.3125 C-1.053125 6.6528125 -1.053125 6.6528125 -2 7 C-1.67 6.21625 -1.34 5.4325 -1 4.625 C0.11866511 2.15667503 0.11866511 2.15667503 0 0 Z " fill="#E01D1E" transform="translate(146,31)"/>
<path d="M0 0 C0.6875 1.625 0.6875 1.625 1 4 C-0.4375 7.25 -0.4375 7.25 -2 10 C-2.33 10 -2.66 10 -3 10 C-2.25 3.375 -2.25 3.375 0 0 Z " fill="#CE1E1D" transform="translate(42,12)"/>
</svg>
