<?xml version="1.0" encoding="UTF-8"?>
<svg version="1.1" xmlns="http://www.w3.org/2000/svg" width="343" height="147">
<path d="M0 0 C4.19767513 4.19767513 5.87401449 8.3121748 6.1875 14.1875 C5.9258917 20.10387241 4.10796304 24.36662788 -0.0625 28.58203125 C-5.52342522 32.86845601 -10.44943093 33.55751524 -17.296875 33.19921875 C-23.67700803 32.22869587 -27.02785756 28.17714612 -31.05078125 23.53125 C-33.69214869 19.60791595 -33.56241333 15.35809665 -33.25 10.75 C-30.8938453 3.91715136 -27.80563403 -0.97218299 -21.25 -4.25 C-13.37422547 -7.137784 -6.57992113 -4.55533002 0 0 Z M-21.25 5.75 C-23.46666876 9.07500313 -24.02137913 10.78723828 -24.25 14.75 C-22.88413256 18.77930894 -21.6141145 22.07292297 -18.25 24.75 C-15.18086163 25.43969402 -12.33685024 25.31321478 -9.25 24.75 C-6.25459937 22.75306625 -4.75886958 21.29887179 -3.625 17.84765625 C-2.95423139 14.20733909 -3.17014566 11.98512666 -4.375 8.4375 C-6.45612322 5.45455671 -7.91802127 4.17799089 -11.25 2.75 C-15.48064315 2.11540353 -17.83783337 3.26004057 -21.25 5.75 Z " fill="#ED0A0A" transform="translate(201.25,34.25)"/>
<path d="M0 0 C4.04743829 3.48267946 8.41071499 7.32231445 8.92578125 12.88671875 C9.08791796 19.68792692 8.90152774 23.87862212 4.6875 29.3125 C0.11750493 33.88249507 -3.62356822 35.46974657 -10.0625 35.625 C-15.52328936 35.55262809 -19.22487398 35.03515941 -23.3125 31.3125 C-27.65643848 26.76123719 -30.3125 22.79614933 -30.3125 16.3125 C-29.42263157 9.30478613 -26.67634002 4.92519082 -21.3125 0.3125 C-14.64759216 -3.93758616 -6.89241111 -3.5112283 0 0 Z M-19.3125 10.3125 C-20.91675619 13.52101238 -20.80327692 16.83185844 -20.3125 20.3125 C-18.81501293 22.96933189 -17.46597249 25.15902751 -15.3125 27.3125 C-12.25852448 27.75419067 -9.36219923 27.78966383 -6.3125 27.3125 C-3.55680553 25.13090855 -1.87661253 23.44072506 -0.3125 20.3125 C0.06516377 15.30845502 -0.20049566 12.31364844 -3.3125 8.3125 C-5.63087458 5.99412542 -6.94011069 5.37726336 -10.1875 4.8125 C-14.5519451 5.51081122 -16.16656918 7.23973037 -19.3125 10.3125 Z " fill="#EE0A0A" transform="translate(123.3125,31.6875)"/>
<path d="M0 0 C1.37478516 0.01740234 1.37478516 0.01740234 2.77734375 0.03515625 C3.69644531 0.04417969 4.61554688 0.05320312 5.5625 0.0625 C6.27277344 0.07410156 6.98304688 0.08570312 7.71484375 0.09765625 C11.83403794 7.75451134 15.28117854 15.62641603 18.58984375 23.66015625 C18.99517334 24.6361377 19.40050293 25.61211914 19.81811523 26.61767578 C20.19395752 27.5404834 20.5697998 28.46329102 20.95703125 29.4140625 C21.29589355 30.24365479 21.63475586 31.07324707 21.98388672 31.92797852 C22.71484375 34.09765625 22.71484375 34.09765625 22.71484375 37.09765625 C19.41484375 37.09765625 16.11484375 37.09765625 12.71484375 37.09765625 C11.72484375 34.78765625 10.73484375 32.47765625 9.71484375 30.09765625 C2.78484375 29.60265625 2.78484375 29.60265625 -4.28515625 29.09765625 C-4.59453125 30.23203125 -4.90390625 31.36640625 -5.22265625 32.53515625 C-6.28515625 36.09765625 -6.28515625 36.09765625 -7.28515625 37.09765625 C-8.97124591 37.16971136 -10.66016284 37.18151693 -12.34765625 37.16015625 C-13.26675781 37.15113281 -14.18585938 37.14210937 -15.1328125 37.1328125 C-15.84308594 37.12121094 -16.55335938 37.10960937 -17.28515625 37.09765625 C-14.80325113 29.26361559 -11.77542556 21.69923789 -8.66015625 14.09765625 C-8.15214203 12.84643605 -7.64432812 11.5951345 -7.13671875 10.34375 C-2.96466113 0.12669492 -2.96466113 0.12669492 0 0 Z M1.71484375 12.09765625 C0.72484375 15.39765625 -0.26515625 18.69765625 -1.28515625 22.09765625 C1.35484375 22.09765625 3.99484375 22.09765625 6.71484375 22.09765625 C6.10493484 18.53985429 5.13647565 15.41479735 3.71484375 12.09765625 C3.05484375 12.09765625 2.39484375 12.09765625 1.71484375 12.09765625 Z " fill="#F10707" transform="translate(253.28515625,29.90234375)"/>
<path d="M0 0 C3.60402474 -0.8640797 6.43493627 -1.11597604 10 0 C13.37983314 4.000729 15.69613828 8.31505215 18 13 C20.50256175 10.00427094 22.4704075 7.18089508 24.1875 3.6875 C25.4296875 1.60546875 25.4296875 1.60546875 27 0 C30.10436247 -0.68463213 32.87531077 -0.49014733 36 0 C36 3.47297375 35.39693043 4.18082962 33.41015625 6.921875 C26.34565104 17.07047959 22.02027437 24.39545298 23 37 C20.03 37 17.06 37 14 37 C14.05542969 36.19820312 14.11085937 35.39640625 14.16796875 34.5703125 C14.23298022 23.10229007 9.40890438 16.12655416 3.18017578 6.87451172 C1.7983722 4.67974798 0.81384674 2.46103355 0 0 Z " fill="#EE0806" transform="translate(132,30)"/>
<path d="M0 0 C0.66209473 -0.00095673 1.32418945 -0.00191345 2.00634766 -0.00289917 C3.40852961 -0.00358076 4.8107147 -0.00172792 6.21289062 0.00244141 C8.36595713 0.00779004 10.51881502 0.0024958 12.671875 -0.00390625 C14.03125046 -0.00324546 15.3906258 -0.00196429 16.75 0 C18.61785156 0.00169189 18.61785156 0.00169189 20.5234375 0.00341797 C23.375 0.1328125 23.375 0.1328125 24.375 1.1328125 C24.41592937 3.46578683 24.41741723 5.79986475 24.375 8.1328125 C20.745 8.1328125 17.115 8.1328125 13.375 8.1328125 C13.38285522 9.39726196 13.38285522 9.39726196 13.39086914 10.68725586 C13.40787826 13.80509186 13.42043406 16.92290427 13.42993164 20.04077148 C13.43497057 21.39201636 13.44180177 22.74325576 13.45043945 24.09448242 C13.46252419 26.03301684 13.46769828 27.9715905 13.47265625 29.91015625 C13.48051147 31.66187134 13.48051147 31.66187134 13.48852539 33.44897461 C13.375 36.1328125 13.375 36.1328125 12.375 37.1328125 C9.735 37.1328125 7.095 37.1328125 4.375 37.1328125 C4.375 27.5628125 4.375 17.9928125 4.375 8.1328125 C0.745 8.1328125 -2.885 8.1328125 -6.625 8.1328125 C-7.625 7.1328125 -7.625 7.1328125 -7.75 4.1328125 C-7.5236419 -1.29978195 -4.83384212 0.00437848 0 0 Z " fill="#F30A0A" transform="translate(215.625,29.8671875)"/>
<path d="M0 0 C1.15242188 0.00064453 2.30484375 0.00128906 3.4921875 0.00195312 C11.98451856 0.04701856 11.98451856 0.04701856 13.125 1.1875 C13.25 4.1875 13.25 4.1875 13.125 7.1875 C12.795 7.5175 12.465 7.8475 12.125 8.1875 C8.495 8.1875 4.865 8.1875 1.125 8.1875 C1.125 17.7575 1.125 27.3275 1.125 37.1875 C-1.515 37.1875 -4.155 37.1875 -6.875 37.1875 C-7.875 36.1875 -7.875 36.1875 -7.98852539 33.50366211 C-7.98328857 32.33585205 -7.97805176 31.16804199 -7.97265625 29.96484375 C-7.96943359 28.70478516 -7.96621094 27.44472656 -7.96289062 26.14648438 C-7.95453403 24.80598891 -7.94606907 23.46549412 -7.9375 22.125 C-7.9324866 20.78060058 -7.92792342 19.4361994 -7.92382812 18.09179688 C-7.91199488 14.79032059 -7.89550971 11.48893197 -7.875 8.1875 C-11.175 8.1875 -14.475 8.1875 -17.875 8.1875 C-18.205 7.1975 -18.535 6.2075 -18.875 5.1875 C-18.545 4.5275 -18.215 3.8675 -17.875 3.1875 C-18.535 2.8575 -19.195 2.5275 -19.875 2.1875 C-13.28360686 -0.22934415 -6.96114418 -0.07549186 0 0 Z " fill="#F50505" transform="translate(79.875,29.8125)"/>
<path d="M0 0 C4.50914883 1.12728721 4.80364229 1.58349986 7.234375 5.25390625 C7.80800781 6.10791016 8.38164063 6.96191406 8.97265625 7.84179688 C9.55917969 8.73962891 10.14570312 9.63746094 10.75 10.5625 C11.35199219 11.46419922 11.95398438 12.36589844 12.57421875 13.29492188 C14.05971113 15.52316044 15.53120288 17.76072116 17 20 C17.33 13.4 17.66 6.8 18 0 C19.32 0.33 20.64 0.66 22 1 C22 9.91 22 18.82 22 28 C17 27 17 27 15.23901367 25.14233398 C14.72056885 24.35157471 14.20212402 23.56081543 13.66796875 22.74609375 C13.09755859 21.89208984 12.52714844 21.03808594 11.93945312 20.15820312 C11.07223633 18.81145508 11.07223633 18.81145508 10.1875 17.4375 C9.2912793 16.08495117 9.2912793 16.08495117 8.37695312 14.70507812 C6.90457976 12.47884959 5.45050828 10.24053622 4 8 C3.67 14.6 3.34 21.2 3 28 C2.01 28 1.02 28 0 28 C0 18.76 0 9.52 0 0 Z " fill="#020202" transform="translate(73,77)"/>
<path d="M0 0 C5 1 5 1 6.43798828 2.51879883 C6.81165527 3.15841553 7.18532227 3.79803223 7.5703125 4.45703125 C7.99183594 5.15763672 8.41335937 5.85824219 8.84765625 6.58007812 C9.26917969 7.31677734 9.69070312 8.05347656 10.125 8.8125 C10.98035198 10.25735132 11.83708386 11.70138678 12.6953125 13.14453125 C13.06672363 13.78753174 13.43813477 14.43053223 13.82080078 15.09301758 C15.08932749 17.14445901 16.5528214 19.07042853 18 21 C18.33 14.07 18.66 7.14 19 0 C19.99 0 20.98 0 22 0 C22 9.24 22 18.48 22 28 C17 27 17 27 15.54614258 25.46533203 C15.16611084 24.81935059 14.7860791 24.17336914 14.39453125 23.5078125 C13.96849609 22.80269531 13.54246094 22.09757812 13.10351562 21.37109375 C12.67748047 20.62988281 12.25144531 19.88867188 11.8125 19.125 C11.37486328 18.39152344 10.93722656 17.65804687 10.48632812 16.90234375 C9.67194323 15.53716112 8.86428683 14.16792552 8.06567383 12.79345703 C7.09681612 11.16293499 6.05207303 9.57810954 5 8 C4.67 14.27 4.34 20.54 4 27 C2.68 27.33 1.36 27.66 0 28 C0 18.76 0 9.52 0 0 Z " fill="#030203" transform="translate(162,77)"/>
<path d="M0 0 C14 0 14 0 19 3 C22.51764651 7.02016744 23.30340444 10.52793184 23.21484375 15.87109375 C22.86160859 19.37133304 21.72731436 21.96230923 20 25 C15.90655127 28.25067987 12.21148262 28.37353278 7.1875 28.1875 C4.815625 28.125625 2.44375 28.06375 0 28 C0 18.76 0 9.52 0 0 Z M3 3 C3 10.26 3 17.52 3 25 C13.01743229 25.90622074 13.01743229 25.90622074 17.1875 23.1875 C19.8185728 18.56044093 19.73798609 14.21251228 19 9 C17.91959951 6.2802092 17.45988614 5.27871887 14.9375 3.75 C11.0519123 2.62892513 11.0519123 2.62892513 3 3 Z " fill="#020202" transform="translate(102,77)"/>
<path d="M0 0 C3.89803678 2.00880423 6.36390532 4.95788373 8 9 C8.74473394 14.86115281 8.51540162 20.07843773 5 25 C1.75593838 27.80168958 -0.23494 28.9043675 -4.5 29.4375 C-9.25208386 28.84348952 -12.56290306 27.58576214 -15.8125 24 C-18.63574133 19.24506724 -18.45956164 14.3643377 -18 9 C-16.7762146 5.45746332 -15.69083992 3.62803629 -12.9375 1.125 C-8.58035626 -0.54369335 -4.59936699 -0.79477062 0 0 Z M-14 8 C-15.46882408 12.36085658 -15.17965228 15.42322164 -13.8125 19.8125 C-11.61329001 23.68481123 -11.61329001 23.68481123 -8 26 C-4.3512653 26.54342857 -2.52669737 26.27531908 0.75 24.5625 C3.88125066 20.99635342 4.69142237 17.69196245 5 13 C4.39576411 9.2537375 3.8116043 6.96768205 1.375 4.0625 C-5.09225032 1.16925644 -10.01124861 2.19817979 -14 8 Z " fill="#020202" transform="translate(148,77)"/>
<path d="M0 0 C3.60141219 -0.86345333 6.42967457 -1.08069256 10 0 C13.6312383 3.87713318 16.15080736 7.98552266 18 13 C17.70703125 16.93359375 17.70703125 16.93359375 17 20 C16.34 20 15.68 20 15 20 C15 24.95 15 29.9 15 35 C16.98 35 18.96 35 21 35 C21 30.38 21 25.76 21 21 C21.66 21.33 22.32 21.66 23 22 C23 26.95 23 31.9 23 37 C20.03 37 17.06 37 14 37 C14.05542969 36.19820312 14.11085937 35.39640625 14.16796875 34.5703125 C14.23298022 23.10229007 9.40890438 16.12655416 3.18017578 6.87451172 C1.7983722 4.67974798 0.81384674 2.46103355 0 0 Z " fill="#F40505" transform="translate(132,30)"/>
<path d="M0 0 C0.74886475 0.00523682 1.49772949 0.01047363 2.26928711 0.01586914 C3.07817383 0.0190918 3.88706055 0.02231445 4.72045898 0.02563477 C5.5705957 0.03401367 6.42073242 0.04239258 7.29663086 0.05102539 C8.15063477 0.05553711 9.00463867 0.06004883 9.88452148 0.06469727 C12.00108749 0.07652166 14.11761771 0.0944577 16.23413086 0.11352539 C16.23413086 1.10352539 16.23413086 2.09352539 16.23413086 3.11352539 C11.28413086 3.11352539 6.33413086 3.11352539 1.23413086 3.11352539 C1.23413086 6.08352539 1.23413086 9.05352539 1.23413086 12.11352539 C5.85413086 12.11352539 10.47413086 12.11352539 15.23413086 12.11352539 C15.23413086 13.10352539 15.23413086 14.09352539 15.23413086 15.11352539 C10.61413086 15.11352539 5.99413086 15.11352539 1.23413086 15.11352539 C1.23413086 18.41352539 1.23413086 21.71352539 1.23413086 25.11352539 C6.51413086 25.11352539 11.79413086 25.11352539 17.23413086 25.11352539 C17.23413086 26.10352539 17.23413086 27.09352539 17.23413086 28.11352539 C10.63413086 28.11352539 4.03413086 28.11352539 -2.76586914 28.11352539 C-2.79269073 23.63431942 -2.81262091 19.15527188 -2.82836914 14.67602539 C-2.83674805 13.39663086 -2.84512695 12.11723633 -2.85375977 10.79907227 C-2.85698242 9.58413086 -2.86020508 8.36918945 -2.86352539 7.11743164 C-2.86876221 5.99151611 -2.87399902 4.86560059 -2.87939453 3.70556641 C-2.72477143 0.17517195 -2.72477143 0.17517195 0 0 Z " fill="#020101" transform="translate(193.765869140625,76.886474609375)"/>
<path d="M0 0 C2.91416923 1.74850154 3.82328934 2.36678682 4.75 5.6875 C4.87375 6.8321875 4.87375 6.8321875 5 8 C4.01 8.33 3.02 8.66 2 9 C1.67 8.175 1.34 7.35 1 6.5 C-0.68282678 3.82688225 -0.68282678 3.82688225 -2.98046875 3.66796875 C-4.98995058 3.68575178 -6.9971564 3.83583249 -9 4 C-9.33 5.65 -9.66 7.3 -10 9 C-8.4840625 9.6496875 -8.4840625 9.6496875 -6.9375 10.3125 C-6.30328125 10.58835937 -5.6690625 10.86421875 -5.015625 11.1484375 C-3.70419366 11.70249182 -2.38120759 12.23019078 -1.046875 12.7265625 C1.63310508 13.75126077 3.64840183 14.57515221 5.5 16.8125 C6.19503778 19.85329027 5.82817851 22.00581617 5 25 C3.08268479 27.52737004 2.08494591 27.9716847 -1 29 C-6.00401435 29.37066773 -8.98301324 29.09881835 -13 26 C-15 23 -15 23 -15 19 C-13.125 19.25 -13.125 19.25 -11 20 C-10.731875 20.66 -10.46375 21.32 -10.1875 22 C-9.5996875 22.99 -9.5996875 22.99 -9 24 C-5.57756686 25.00082535 -5.57756686 25.00082535 -2 25 C-1.01 24.34 -0.02 23.68 1 23 C1.25030977 20.41619823 1.25030977 20.41619823 1 18 C-0.24716797 17.61908203 -0.24716797 17.61908203 -1.51953125 17.23046875 C-2.60621094 16.88628906 -3.69289062 16.54210937 -4.8125 16.1875 C-6.43091797 15.68283203 -6.43091797 15.68283203 -8.08203125 15.16796875 C-10.85251297 14.0590343 -12.27139986 13.39162485 -14 11 C-14.48258091 7.20829285 -14.51879045 4.91967398 -12.625 1.5625 C-8.63881371 -0.81022994 -4.5267187 -0.80523361 0 0 Z " fill="#020202" transform="translate(230,77)"/>
<path d="M0 0 C1.32 0 2.64 0 4 0 C5.42842911 3.66452852 6.85247676 7.33072569 8.27246094 10.99853516 C8.99441847 12.86060415 9.71985238 14.72132407 10.4453125 16.58203125 C10.89648438 17.74863281 11.34765625 18.91523437 11.8125 20.1171875 C12.23144531 21.19597168 12.65039062 22.27475586 13.08203125 23.38623047 C14 26 14 26 14 28 C12.68 28 11.36 28 10 28 C9.34 25.36 8.68 22.72 8 20 C4.04 20.33 0.08 20.66 -4 21 C-4.99 23.31 -5.98 25.62 -7 28 C-8.32 27.67 -9.64 27.34 -11 27 C-7.37 18.09 -3.74 9.18 0 0 Z M1 5 C0.3291288 6.6232687 -0.33657029 8.24867578 -1 9.875 C-1.37125 10.77992187 -1.7425 11.68484375 -2.125 12.6171875 C-3.11490226 14.88983858 -3.11490226 14.88983858 -3 17 C-0.03 17 2.94 17 6 17 C5.33501617 12.61110675 3.81242323 9.0188515 2 5 C1.67 5 1.34 5 1 5 Z " fill="#020202" transform="translate(262,77)"/>
<path d="M0 0 C70.95 0 141.9 0 215 0 C215 0.33 215 0.66 215 1 C144.05 1 73.1 1 0 1 C0 0.67 0 0.34 0 0 Z " fill="#110E11" transform="translate(61,110)"/>
<path d="M0 0 C0 9.24 0 18.48 0 28 C-1.98 28 -3.96 28 -6 28 C-6 19.09 -6 10.18 -6 1 C-2 0 -2 0 0 0 Z " fill="#FB0102" transform="translate(227,37)"/>
<path d="M0 0 C0.99 0 1.98 0 3 0 C3.33 0.66 3.66 1.32 4 2 C4.33 1.34 4.66 0.68 5 0 C5.99 0 6.98 0 8 0 C8.33 0.66 8.66 1.32 9 2 C12.71599191 2.20086443 13.77208445 2.1519437 17 0 C17.66 0.66 18.32 1.32 19 2 C21.57061311 2.64767793 21.57061311 2.64767793 24 3 C23.67 4.65 23.34 6.3 23 8 C17.375 9.125 17.375 9.125 14 8 C13.01 8.33 12.02 8.66 11 9 C8.99548879 8.69496569 6.99551782 8.35919321 5 8 C3.33372702 7.96377667 1.66594626 7.95100158 0 8 C0 5.36 0 2.72 0 0 Z M11 4 C12 6 12 6 12 6 Z M20 4 C20 4.66 20 5.32 20 6 C20.66 6 21.32 6 22 6 C22 5.34 22 4.68 22 4 C21.34 4 20.68 4 20 4 Z " fill="#07070A" transform="translate(117,117)"/>
<path d="M0 0 C0.66 0.99 1.32 1.98 2 3 C1.690625 3.53625 1.38125 4.0725 1.0625 4.625 C-0.17827439 7.3984957 -0.5909675 10.00042837 -1 13 C-1.33 13 -1.66 13 -2 13 C-2.33 17.29 -2.66 21.58 -3 26 C-4.98 26 -6.96 26 -9 26 C-9 21.05 -9 16.1 -9 11 C-8.34 11 -7.68 11 -7 11 C-7 9.35 -7 7.7 -7 6 C-5.68 6 -4.36 6 -3 6 C-2.690625 5.38125 -2.38125 4.7625 -2.0625 4.125 C-1.375 2.75 -0.6875 1.375 0 0 Z " fill="#FA0202" transform="translate(156,39)"/>
<path d="M0 0 C1.15242188 0.00064453 2.30484375 0.00128906 3.4921875 0.00195312 C11.98451856 0.04701856 11.98451856 0.04701856 13.125 1.1875 C13.25 4.1875 13.25 4.1875 13.125 7.1875 C12.125 8.1875 12.125 8.1875 9.83984375 8.28515625 C8.46505859 8.26775391 8.46505859 8.26775391 7.0625 8.25 C6.14339844 8.24097656 5.22429687 8.23195313 4.27734375 8.22265625 C3.56707031 8.21105469 2.85679688 8.19945312 2.125 8.1875 C2.785 7.8575 3.445 7.5275 4.125 7.1875 C3.48520151 5.15508273 3.48520151 5.15508273 2.125 3.1875 C-1.16927581 2.08940806 -2.53911172 2.07553724 -5.875 3.1875 C-7.76970816 3.2560495 -9.6666834 3.27230372 -11.5625 3.25 C-12.55636719 3.24097656 -13.55023438 3.23195312 -14.57421875 3.22265625 C-15.71310547 3.20525391 -15.71310547 3.20525391 -16.875 3.1875 C-16.875 4.5075 -16.875 5.8275 -16.875 7.1875 C-13.905 7.1875 -10.935 7.1875 -7.875 7.1875 C-7.875 7.5175 -7.875 7.8475 -7.875 8.1875 C-11.175 8.1875 -14.475 8.1875 -17.875 8.1875 C-18.205 7.1975 -18.535 6.2075 -18.875 5.1875 C-18.545 4.5275 -18.215 3.8675 -17.875 3.1875 C-18.535 2.8575 -19.195 2.5275 -19.875 2.1875 C-13.28360686 -0.22934415 -6.96114418 -0.07549186 0 0 Z " fill="#ED0D0D" transform="translate(79.875,29.8125)"/>
<path d="M0 0 C2.475 0.495 2.475 0.495 5 1 C5 1.99 5 2.98 5 4 C5.99 4 6.98 4 8 4 C9.80230168 7.82989106 10.19622241 10.78121808 10 15 C7.69 15 5.38 15 3 15 C2.87625 14.195625 2.7525 13.39125 2.625 12.5625 C2.41875 11.716875 2.2125 10.87125 2 10 C-1.171738 8.414131 -4.63513822 8.62133555 -8.125 8.4375 C-8.87910156 8.39431641 -9.63320312 8.35113281 -10.41015625 8.30664062 C-12.27321888 8.2005168 -14.13658524 8.09974999 -16 8 C-16 7.67 -16 7.34 -16 7 C-12.04 7 -8.08 7 -4 7 C-4.66 5.68 -5.32 4.36 -6 3 C-4.35 3 -2.7 3 -1 3 C-0.67 2.01 -0.34 1.02 0 0 Z " fill="#F50504" transform="translate(264,50)"/>
<path d="M0 0 C3 1 6 2 9 3 C9.33 2.67 9.66 2.34 10 2 C11.66617115 1.95936168 13.33388095 1.957279 15 2 C15 1.34 15 0.68 15 0 C15.66 0 16.32 0 17 0 C17 0.66 17 1.32 17 2 C18.98 2 20.96 2 23 2 C23 3.98 23 5.96 23 8 C22.07767578 7.98259766 22.07767578 7.98259766 21.13671875 7.96484375 C19.92435547 7.95130859 19.92435547 7.95130859 18.6875 7.9375 C17.88699219 7.92589844 17.08648437 7.91429688 16.26171875 7.90234375 C13.83138666 7.90342145 13.83138666 7.90342145 11 9 C8.95703125 8.87890625 8.95703125 8.87890625 6.8125 8.5625 C5.554375 8.376875 4.29625 8.19125 3 8 C3 6.68 3 5.36 3 4 C2.67 5.32 2.34 6.64 2 8 C1.01 8 0.02 8 -1 8 C-1.125 2.25 -1.125 2.25 0 0 Z M11 4 C11 4.66 11 5.32 11 6 C11.66 6 12.32 6 13 6 C13 5.34 13 4.68 13 4 C12.34 4 11.68 4 11 4 Z M17 4 C18 6 18 6 18 6 Z " fill="#060608" transform="translate(178,117)"/>
<path d="M0 0 C1.32 0.33 2.64 0.66 4 1 C4 9.91 4 18.82 4 28 C2.68 28 1.36 28 0 28 C0 18.76 0 9.52 0 0 Z " fill="#000000" transform="translate(61,77)"/>
<path d="M0 0 C0.99 0.33 1.98 0.66 3 1 C3 9.91 3 18.82 3 28 C1.68 28 0.36 28 -1 28 C-1.02886338 23.52084672 -1.04675187 19.04171709 -1.0625 14.5625 C-1.07087891 13.28310547 -1.07925781 12.00371094 -1.08789062 10.68554688 C-1.09111328 9.47060547 -1.09433594 8.25566406 -1.09765625 7.00390625 C-1.10289307 5.87799072 -1.10812988 4.7520752 -1.11352539 3.59204102 C-1 1 -1 1 0 0 Z " fill="#000000" transform="translate(243,77)"/>
<path d="M0 0 C0.268125 0.556875 0.53625 1.11375 0.8125 1.6875 C2.10122647 4.19712523 3.52926478 6.59334236 5 9 C3.68 8.67 2.36 8.34 1 8 C0.67 9.98 0.34 11.96 0 14 C0.8971875 13.6596875 0.8971875 13.6596875 1.8125 13.3125 C2.8953125 13.1578125 2.8953125 13.1578125 4 13 C4.61875 13.72703125 4.61875 13.72703125 5.25 14.46875 C7.8223251 16.71953446 9.83792117 16.29555093 13.1875 16.1875 C14.81751953 16.14689453 14.81751953 16.14689453 16.48046875 16.10546875 C17.31191406 16.07066406 18.14335937 16.03585938 19 16 C16.25637988 18.74362012 14.57800386 18.33130133 10.75 18.375 C4.08631983 18.25037672 1.04004779 16.97786499 -3.71875 12.31640625 C-6.89630323 8.95831022 -6.89630323 8.95831022 -8 7 C-7.66015625 4.78125 -7.66015625 4.78125 -7 3 C-7 3.99 -7 4.98 -7 6 C-5.08533633 5.87822312 -5.08533633 5.87822312 -3 5 C-1.22851628 2.52066803 -1.22851628 2.52066803 0 0 Z " fill="#E90F11" transform="translate(177,49)"/>
<path d="M0 0 C0.33 0 0.66 0 1 0 C1 8.91 1 17.82 1 27 C2.98 27 4.96 27 7 27 C7 18.09 7 9.18 7 0 C7.66 0 8.32 0 9 0 C9.02465881 3.96930989 9.04284023 7.93859034 9.05493164 11.90795898 C9.05997057 13.25920386 9.06680177 14.61044326 9.07543945 15.96166992 C9.08752419 17.90020434 9.09269828 19.838778 9.09765625 21.77734375 C9.10289307 22.94515381 9.10812988 24.11296387 9.11352539 25.31616211 C9 28 9 28 8 29 C5.36 29 2.72 29 0 29 C0 19.43 0 9.86 0 0 Z " fill="#D11110" transform="translate(220,38)"/>
<path d="M0 0 C5.33333333 0 10.66666667 0 16 0 C16.33 1.65 16.66 3.3 17 5 C16.01 5.66 15.02 6.32 14 7 C12.68 6.34 11.36 5.68 10 5 C8.68 6.32 7.36 7.64 6 9 C6 8.01 6 7.02 6 6 C5.1028125 6.309375 5.1028125 6.309375 4.1875 6.625 C2 7 2 7 -1 5 C-0.67 3.35 -0.34 1.7 0 0 Z M1 2 C1.66 2.66 2.32 3.32 3 4 C3 3.34 3 2.68 3 2 C2.34 2 1.68 2 1 2 Z M13 2 C13 2.66 13 3.32 13 4 C13.66 4 14.32 4 15 4 C15 3.34 15 2.68 15 2 C14.34 2 13.68 2 13 2 Z " fill="#070809" transform="translate(86,119)"/>
<path d="M0 0 C0.99 0.33 1.98 0.66 3 1 C3 1.99 3 2.98 3 4 C3.33 3.34 3.66 2.68 4 2 C7 3 7 3 8.1875 5.0625 C8.455625 5.701875 8.72375 6.34125 9 7 C8.34 7 7.68 7 7 7 C7 11.95 7 16.9 7 22 C8.98 22 10.96 22 13 22 C13 17.38 13 12.76 13 8 C13.66 8.33 14.32 8.66 15 9 C15 13.95 15 18.9 15 24 C12.03 24 9.06 24 6 24 C5.98582031 23.0821875 5.97164062 22.164375 5.95703125 21.21875 C5.68620886 14.25056302 5.37679139 9.08023808 1.05859375 3.453125 C0 2 0 2 0 0 Z " fill="#DE1616" transform="translate(140,43)"/>
<path d="M0 0 C0 1.65 0 3.3 0 5 C0.99 5 1.98 5 3 5 C3 7.97 3 10.94 3 14 C-1 16 -1 16 -4 16 C-4.33 13.03 -4.66 10.06 -5 7 C-4.34 7 -3.68 7 -3 7 C-3 5.02 -3 3.04 -3 1 C-1 0 -1 0 0 0 Z " fill="#FA0302" transform="translate(174,39)"/>
<path d="M0 0 C0.99 0 1.98 0 3 0 C3.33 0.66 3.66 1.32 4 2 C4.33 1.34 4.66 0.68 5 0 C5.99 0 6.98 0 8 0 C8.33 0.66 8.66 1.32 9 2 C10.65 2 12.3 2 14 2 C14 3.98 14 5.96 14 8 C10.62694576 9.12435141 8.4321129 8.75339064 5 8 C3.3337447 7.9629721 1.66598681 7.95240038 0 8 C0 5.36 0 2.72 0 0 Z " fill="#050508" transform="translate(149,117)"/>
<path d="M0 0 C0.66 0 1.32 0 2 0 C2 2.64 2 5.28 2 8 C-3.625 9.125 -3.625 9.125 -7 8 C-7.99 8.495 -7.99 8.495 -9 9 C-9.99 8.34 -10.98 7.68 -12 7 C-11.67 5.35 -11.34 3.7 -11 2 C-10.01 1.67 -9.02 1.34 -8 1 C-7.34 1.33 -6.68 1.66 -6 2 C-4.33380554 2.0396713 -2.66608987 2.04384447 -1 2 C-0.67 1.34 -0.34 0.68 0 0 Z " fill="#05070A" transform="translate(268,117)"/>
<path d="M0 0 C1.25159912 0.00523682 2.50319824 0.01047363 3.79272461 0.01586914 C4.78942421 0.01799156 4.78942421 0.01799156 5.80625916 0.02015686 C7.93590735 0.02577021 10.06545175 0.03832485 12.19506836 0.05102539 C13.63582205 0.05603868 15.07657739 0.06060188 16.51733398 0.06469727 C20.05577938 0.07574394 23.59416375 0.09301747 27.13256836 0.11352539 C27.13256836 0.44352539 27.13256836 0.77352539 27.13256836 1.11352539 C19.54256836 1.11352539 11.95256836 1.11352539 4.13256836 1.11352539 C3.47256836 3.09352539 2.81256836 5.07352539 2.13256836 7.11352539 C4.11256836 7.11352539 6.09256836 7.11352539 8.13256836 7.11352539 C8.13256836 7.44352539 8.13256836 7.77352539 8.13256836 8.11352539 C6.32014784 8.14039818 4.50761603 8.15986255 2.69506836 8.17602539 C1.68573242 8.18762695 0.67639648 8.19922852 -0.36352539 8.21118164 C-2.86743164 8.11352539 -2.86743164 8.11352539 -3.86743164 7.11352539 C-3.99243164 4.11352539 -3.99243164 4.11352539 -3.86743164 1.11352539 C-2.86743164 0.11352539 -2.86743164 0.11352539 0 0 Z " fill="#DF0F10" transform="translate(211.867431640625,29.886474609375)"/>
<path d="M0 0 C1.9375 0.375 1.9375 0.375 4 1 C4.33 1.66 4.66 2.32 5 3 C7.32506659 3.39156228 7.32506659 3.39156228 10 3.5 C12.75 3.65625 12.75 3.65625 15 4 C15.33 4.66 15.66 5.32 16 6 C15.67 6.99 15.34 7.98 15 9 C6.75330396 9.47577093 6.75330396 9.47577093 3.625 7.5 C3.08875 7.005 2.5525 6.51 2 6 C1.01 6 0.02 6 -1 6 C-0.67 4.02 -0.34 2.04 0 0 Z " fill="#F90202" transform="translate(178,57)"/>
<path d="M0 0 C3.37887713 -0.28527105 6.63173355 -0.45018698 10 0 C12.18182341 2.43850852 13 3.7321149 13 7 C10.03 6.505 10.03 6.505 7 6 C7.33 8.31 7.66 10.62 8 13 C5.68757908 10.83676753 3.9843604 8.62352196 2.3125 5.9375 C1.87550781 5.24527344 1.43851563 4.55304687 0.98828125 3.83984375 C0 2 0 2 0 0 Z " fill="#E50E0D" transform="translate(132,30)"/>
<path d="M0 0 C0.99 0 1.98 0 3 0 C3.33 0.66 3.66 1.32 4 2 C5.65 2 7.3 2 9 2 C9.33 3.65 9.66 5.3 10 7 C8.1875 8.0625 8.1875 8.0625 6 9 C5.01 8.67 4.02 8.34 3 8 C1.00038436 7.96079185 -1.00049364 7.95556653 -3 8 C-3 6.02 -3 4.04 -3 2 C-2.01 2 -1.02 2 0 2 C0 1.34 0 0.68 0 0 Z M-1 4 C0 6 0 6 0 6 Z M6 4 C7 6 7 6 7 6 Z " fill="#050507" transform="translate(239,117)"/>
<path d="M0 0 C4.29 0 8.58 0 13 0 C13 0.66 13 1.32 13 2 C12.34 2 11.68 2 11 2 C11 3.98 11 5.96 11 8 C10.34 8 9.68 8 9 8 C9 6.02 9 4.04 9 2 C8.34 2 7.68 2 7 2 C6.71125 2.639375 6.4225 3.27875 6.125 3.9375 C4.5431334 6.83758878 3.13872499 6.95375834 0 8 C0 5.36 0 2.72 0 0 Z " fill="#030304" transform="translate(61,117)"/>
<path d="M0 0 C0.66 0 1.32 0 2 0 C2 0.66 2 1.32 2 2 C3.98 2 5.96 2 8 2 C8 3.98 8 5.96 8 8 C5.36 8 2.72 8 0 8 C-0.33 6.68 -0.66 5.36 -1 4 C-1.33 5.32 -1.66 6.64 -2 8 C-2.99 7.67 -3.98 7.34 -5 7 C-4.67 5.35 -4.34 3.7 -4 2 C-2.68 2 -1.36 2 0 2 C0 1.34 0 0.68 0 0 Z " fill="#050506" transform="translate(207,117)"/>
<path d="M0 0 C1.01771484 0.00902344 2.03542969 0.01804687 3.08398438 0.02734375 C5.57707156 0.05075302 8.06965859 0.083543 10.5625 0.125 C10.5625 0.455 10.5625 0.785 10.5625 1.125 C9.31533203 1.21587891 9.31533203 1.21587891 8.04296875 1.30859375 C6.41294922 1.43427734 6.41294922 1.43427734 4.75 1.5625 C3.67105469 1.64371094 2.59210938 1.72492187 1.48046875 1.80859375 C-1.49739905 2.02712461 -1.49739905 2.02712461 -4.4375 3.125 C-6.33220816 3.1935495 -8.2291834 3.20980372 -10.125 3.1875 C-11.11886719 3.17847656 -12.11273438 3.16945312 -13.13671875 3.16015625 C-14.27560547 3.14275391 -14.27560547 3.14275391 -15.4375 3.125 C-15.4375 4.445 -15.4375 5.765 -15.4375 7.125 C-12.4675 7.125 -9.4975 7.125 -6.4375 7.125 C-6.4375 7.455 -6.4375 7.785 -6.4375 8.125 C-9.7375 8.125 -13.0375 8.125 -16.4375 8.125 C-16.7675 7.135 -17.0975 6.145 -17.4375 5.125 C-17.1075 4.465 -16.7775 3.805 -16.4375 3.125 C-17.0975 2.795 -17.7575 2.465 -18.4375 2.125 C-12.23465256 -0.08471003 -6.54148302 -0.11065619 0 0 Z " fill="#CC1817" transform="translate(78.4375,29.875)"/>
<path d="M0 0 C2.60444348 -0.05394705 5.20776998 -0.09364469 7.8125 -0.125 C8.55048828 -0.14175781 9.28847656 -0.15851562 10.04882812 -0.17578125 C13.91246426 -0.21074628 15.70903668 -0.19397555 19 2 C19.1875 4.625 19.1875 4.625 19 7 C21.31 7 23.62 7 26 7 C26.33 6.01 26.66 5.02 27 4 C27.33 5.65 27.66 7.3 28 9 C24.7 9 21.4 9 18 9 C17.01 6.69 16.02 4.38 15 2 C8.07 1.505 8.07 1.505 1 1 C0.34 2.32 -0.32 3.64 -1 5 C-0.67 3.35 -0.34 1.7 0 0 Z " fill="#D21A19" transform="translate(248,58)"/>
<path d="M0 0 C0.99 0.33 1.98 0.66 3 1 C2.01 4.96 1.02 8.92 0 13 C-0.33 12.34 -0.66 11.68 -1 11 C-2.65 11 -4.3 11 -6 11 C-6.33 10.34 -6.66 9.68 -7 9 C-6.34 8.01 -5.68 7.02 -5 6 C-4.67 6.33 -4.34 6.66 -4 7 C-3.34 6.67 -2.68 6.34 -2 6 C-1.62690101 4.34178227 -1.29299023 2.67422986 -1 1 C-0.67 0.67 -0.34 0.34 0 0 Z " fill="#F80404" transform="translate(103,33)"/>
<path d="M0 0 C0 3 0 3 -1.0625 4.625 C-3.87456882 6.62066174 -6.62268141 6.68138504 -10 7 C-10.66 5.35 -11.32 3.7 -12 2 C-7.8794254 0.00214565 -4.54805635 -0.17835515 0 0 Z " fill="#F90302" transform="translate(189,31)"/>
<path d="M0 0 C13.75 -0.125 13.75 -0.125 16 1 C15.67 1.66 15.34 2.32 15 3 C11.85617176 4.04794275 10.12796561 4.00520947 6.875 3.6875 C5.98554687 3.60886719 5.09609375 3.53023438 4.1796875 3.44921875 C3.46039063 3.30097656 2.74109375 3.15273437 2 3 C1.67 2.34 1.34 1.68 1 1 C1 6.94 1 12.88 1 19 C0.67 19 0.34 19 0 19 C0 12.73 0 6.46 0 0 Z " fill="#0A0909" transform="translate(102,77)"/>
<path d="M0 0 C1.21816406 0.03480469 1.21816406 0.03480469 2.4609375 0.0703125 C3.68683594 0.09738281 3.68683594 0.09738281 4.9375 0.125 C5.87722656 0.15980469 5.87722656 0.15980469 6.8359375 0.1953125 C6.8359375 4.19436219 5.11006783 5.99731672 2.8359375 9.1953125 C1.90528617 6.58948879 1.68676343 5.55333026 2.7734375 2.9453125 C3.1240625 2.3678125 3.4746875 1.7903125 3.8359375 1.1953125 C2.5159375 1.1953125 1.1959375 1.1953125 -0.1640625 1.1953125 C-0.8240625 2.8453125 -1.4840625 4.4953125 -2.1640625 6.1953125 C-2.8240625 6.1953125 -3.4840625 6.1953125 -4.1640625 6.1953125 C-4.1640625 6.8553125 -4.1640625 7.5153125 -4.1640625 8.1953125 C-4.8240625 8.1953125 -5.4840625 8.1953125 -6.1640625 8.1953125 C-3.77348794 0.3405675 -3.77348794 0.3405675 0 0 Z " fill="#D41513" transform="translate(161.1640625,29.8046875)"/>
<path d="M0 0 C0 1.98 0 3.96 0 6 C-2.31 6 -4.62 6 -7 6 C-7 5.01 -7 4.02 -7 3 C-8.65 3.33 -10.3 3.66 -12 4 C-10 1 -10 1 -7.87109375 0.48828125 C-6.66646484 0.40126953 -6.66646484 0.40126953 -5.4375 0.3125 C-4.63183594 0.24675781 -3.82617188 0.18101563 -2.99609375 0.11328125 C-1.99828777 0.0566543 -0.99941152 0 0 0 Z " fill="#FA0202" transform="translate(239,31)"/>
<path d="M0 0 C1.2065625 0.0309375 1.2065625 0.0309375 2.4375 0.0625 C2.4375 2.7025 2.4375 5.3425 2.4375 8.0625 C-1.3125 9.1875 -1.3125 9.1875 -3.5625 8.0625 C-3.60491723 5.72955225 -3.60342937 3.39547433 -3.5625 1.0625 C-2.5625 0.0625 -2.5625 0.0625 0 0 Z M-1.5625 2.0625 C-1.5625 2.7225 -1.5625 3.3825 -1.5625 4.0625 C-0.9025 4.0625 -0.2425 4.0625 0.4375 4.0625 C0.4375 3.4025 0.4375 2.7425 0.4375 2.0625 C-0.2225 2.0625 -0.8825 2.0625 -1.5625 2.0625 Z " fill="#050506" transform="translate(219.5625,118.9375)"/>
<path d="M0 0 C0.66 0.99 1.32 1.98 2 3 C1.690625 3.598125 1.38125 4.19625 1.0625 4.8125 C-0.10209704 7.08956772 -0.10209704 7.08956772 -1 10 C1.64 9.67 4.28 9.34 7 9 C6.67 9.99 6.34 10.98 6 12 C2.7 12 -0.6 12 -4 12 C-2.66666667 8 -1.33333333 4 0 0 Z " fill="#CE1818" transform="translate(240,55)"/>
<path d="M0 0 C0 0.66 0 1.32 0 2 C-0.928125 2.309375 -0.928125 2.309375 -1.875 2.625 C-4.3090939 3.8861233 -4.3090939 3.8861233 -5 7 C-5.33 7.99 -5.66 8.98 -6 10 C-7.0209375 10.495 -7.0209375 10.495 -8.0625 11 C-9.0215625 11.495 -9.0215625 11.495 -10 12 C-10.81584568 15.05908413 -10.81584568 15.05908413 -11 18 C-11.66 17.67 -12.32 17.34 -13 17 C-11.86644578 9.94677376 -9.18143176 5.90036352 -4 1 C-2 0 -2 0 0 0 Z " fill="#DC100F" transform="translate(106,31)"/>
<path d="M0 0 C0.66 1.65 1.32 3.3 2 5 C1 6 1 6 -2.0625 6.0625 C-3.031875 6.041875 -4.00125 6.02125 -5 6 C-5 5.34 -5 4.68 -5 4 C-5.99 4 -6.98 4 -8 4 C-8 3.34 -8 2.68 -8 2 C-2.25 0 -2.25 0 0 0 Z " fill="#F80301" transform="translate(118,60)"/>
<path d="M0 0 C1.65 0.33 3.3 0.66 5 1 C4.67 4.3 4.34 7.6 4 11 C3.34 11 2.68 11 2 11 C2 10.01 2 9.02 2 8 C1.34 8 0.68 8 0 8 C-0.79953138 4.71303767 -1.09658936 3.28976808 0 0 Z " fill="#F90303" transform="translate(95,46)"/>
<path d="M0 0 C2.97 0.495 2.97 0.495 6 1 C5.34 3.31 4.68 5.62 4 8 C3.34 8 2.68 8 2 8 C1.67 6.68 1.34 5.36 1 4 C0.34 4 -0.32 4 -1 4 C-0.67 2.68 -0.34 1.36 0 0 Z " fill="#F90203" transform="translate(119,33)"/>
<path d="M0 0 C0.99 0.33 1.98 0.66 3 1 C2.67 3.31 2.34 5.62 2 8 C0.35 8 -1.3 8 -3 8 C-3 6.02 -3 4.04 -3 2 C-2.01 2 -1.02 2 0 2 C0 1.34 0 0.68 0 0 Z M-1 4 C0 6 0 6 0 6 Z " fill="#090C0E" transform="translate(239,117)"/>
<path d="M0 0 C-4.04866956 1.34955652 -7.75477976 1.02246056 -11.9921875 0.9375 C-14.80054699 0.99585552 -17.27321229 1.35603537 -20 2 C-14.77029984 -4.01415518 -6.84747321 -2.67218467 0 0 Z " fill="#D21418" transform="translate(197,31)"/>
<path d="M0 0 C1.98 0 3.96 0 6 0 C6 1.98 6 3.96 6 6 C4.125 6.625 4.125 6.625 2 7 C0 5 0 5 -0.125 2.375 C-0.08375 1.59125 -0.0425 0.8075 0 0 Z " fill="#060607" transform="translate(170,119)"/>
<path d="M0 0 C2.31 0 4.62 0 7 0 C7 0.66 7 1.32 7 2 C6.34 2 5.68 2 5 2 C5 3.98 5 5.96 5 8 C4.01 8 3.02 8 2 8 C2 6.35 2 4.7 2 3 C1.34 2.67 0.68 2.34 0 2 C0 1.34 0 0.68 0 0 Z " fill="#05070A" transform="translate(79,117)"/>
<path d="M0 0 C3.3 0 6.6 0 10 0 C10.66 1.65 11.32 3.3 12 5 C10.68 4.67 9.36 4.34 8 4 C8 3.34 8 2.68 8 2 C5.36 2 2.72 2 0 2 C0 1.34 0 0.68 0 0 Z " fill="#E21517" transform="translate(251,30)"/>
<path d="M0 0 C1.65 0 3.3 0 5 0 C5.33 1.98 5.66 3.96 6 6 C4.35 6.33 2.7 6.66 1 7 C0 2.25 0 2.25 0 0 Z " fill="#070708" transform="translate(108,119)"/>
<path d="M0 0 C1.65 0 3.3 0 5 0 C5 1.98 5 3.96 5 6 C3.0625 6.5625 3.0625 6.5625 1 7 C0 6 0 6 -0.0625 2.9375 C-0.041875 1.968125 -0.02125 0.99875 0 0 Z " fill="#020206" transform="translate(271,119)"/>
<path d="M0 0 C1.65 0.33 3.3 0.66 5 1 C4.67 2.65 4.34 4.3 4 6 C2.02 6 0.04 6 -2 6 C-1.49396008 3.83125748 -1.00016187 2.00032373 0 0 Z " fill="#F90301" transform="translate(216,31)"/>
<path d="M0 0 C2.475 0.495 2.475 0.495 5 1 C4.71905418 2.8141927 4.42493567 4.62635001 4.125 6.4375 C3.88136719 7.95150391 3.88136719 7.95150391 3.6328125 9.49609375 C3.42398438 10.32238281 3.21515625 11.14867187 3 12 C2.01 12.495 2.01 12.495 1 13 C1.020625 11.783125 1.04125 10.56625 1.0625 9.3125 C1.06824116 6.08022678 0.78766315 3.15065259 0 0 Z " fill="#E0100C" transform="translate(196,41)"/>
<path d="M0 0 C1.66611905 -0.042721 3.33382885 -0.04063832 5 0 C6 1 6 1 6.0625 3.5625 C6.041875 4.366875 6.02125 5.17125 6 6 C5.01 5.67 4.02 5.34 3 5 C3.33 4.01 3.66 3.02 4 2 C3.34 2 2.68 2 2 2 C2 3.32 2 4.64 2 6 C1.34 6 0.68 6 0 6 C0 4.02 0 2.04 0 0 Z " fill="#060609" transform="translate(229,119)"/>
<path d="M0 0 C1.32 0 2.64 0 4 0 C4.33 0.66 4.66 1.32 5 2 C4.0390625 3.9453125 4.0390625 3.9453125 2.625 6.125 C2.16351563 6.84945312 1.70203125 7.57390625 1.2265625 8.3203125 C0.82179687 8.87460937 0.41703125 9.42890625 0 10 C-0.33 10 -0.66 10 -1 10 C-1.08004482 6.4780279 -1.04005702 3.38018531 0 0 Z " fill="#E30C10" transform="translate(156,42)"/>
<path d="M0 0 C1.65 0 3.3 0 5 0 C5 1.98 5 3.96 5 6 C3.02 6 1.04 6 -1 6 C-0.67 4.02 -0.34 2.04 0 0 Z " fill="#09090A" transform="translate(250,119)"/>
<path d="M0 0 C1.2065625 0.0309375 1.2065625 0.0309375 2.4375 0.0625 C2.7675 0.7225 3.0975 1.3825 3.4375 2.0625 C2.1175 2.0625 0.7975 2.0625 -0.5625 2.0625 C-0.5625 3.3825 -0.5625 4.7025 -0.5625 6.0625 C2.4075 6.0625 5.3775 6.0625 8.4375 6.0625 C8.4375 6.3925 8.4375 6.7225 8.4375 7.0625 C5.1375 7.0625 1.8375 7.0625 -1.5625 7.0625 C-1.8925 6.0725 -2.2225 5.0825 -2.5625 4.0625 C-2.2325 3.4025 -1.9025 2.7425 -1.5625 2.0625 C-2.2225 1.7325 -2.8825 1.4025 -3.5625 1.0625 C-2.5625 0.0625 -2.5625 0.0625 0 0 Z " fill="#AD1010" transform="translate(63.5625,30.9375)"/>
<path d="M0 0 C1.65 0 3.3 0 5 0 C5 1.98 5 3.96 5 6 C3.35 6 1.7 6 0 6 C0 4.02 0 2.04 0 0 Z " fill="#060607" transform="translate(164,119)"/>
<path d="M0 0 C0.66 0 1.32 0 2 0 C3 5.75 3 5.75 3 8 C2.01 8 1.02 8 0 8 C-1.125 2.25 -1.125 2.25 0 0 Z " fill="#050507" transform="translate(104,117)"/>
<path d="M0 0 C2.97 0 5.94 0 9 0 C6 3 6 3 2.8125 3.1875 C1.4203125 3.0946875 1.4203125 3.0946875 0 3 C0 2.01 0 1.02 0 0 Z " fill="#09090B" transform="translate(221,77)"/>
<path d="M0 0 C1.32 0 2.64 0 4 0 C3.67 1.32 3.34 2.64 3 4 C1.35 4.33 -0.3 4.66 -2 5 C-1.34 3.35 -0.68 1.7 0 0 Z " fill="#FA0402" transform="translate(161,31)"/>
<path d="M0 0 C0.66 0 1.32 0 2 0 C1.50168276 3.68754757 0.89932357 5.60490662 -2 8 C-1.125 2.25 -1.125 2.25 0 0 Z " fill="#E00D0F" transform="translate(165,31)"/>
<path d="M0 0 C1.32 0 2.64 0 4 0 C4 1.98 4 3.96 4 6 C3.34 6 2.68 6 2 6 C2 4.68 2 3.36 2 2 C1.01 1.67 0.02 1.34 -1 1 C-0.67 0.67 -0.34 0.34 0 0 Z " fill="#0C0C0E" transform="translate(211,119)"/>
<path d="M0 0 C1.32 0 2.64 0 4 0 C4 0.66 4 1.32 4 2 C3.34 2 2.68 2 2 2 C2 3.32 2 4.64 2 6 C1.34 6 0.68 6 0 6 C0 4.02 0 2.04 0 0 Z " fill="#020104" transform="translate(142,119)"/>
<path d="M0 0 C0.66 0 1.32 0 2 0 C2 2.64 2 5.28 2 8 C1.34 8 0.68 8 0 8 C0 5.36 0 2.72 0 0 Z " fill="#060508" transform="translate(226,117)"/>
</svg>
